<mxfile host="app.diagrams.net" agent="Mozilla/5.0 (Windows NT 10.0; Win64; x64) AppleWebKit/537.36 (KHTML, like Gecko) Chrome/138.0.0.0 Safari/537.36 Edg/138.0.0.0" version="27.2.0">
  <diagram name="Page-1" id="OWnOA-4le9mlDL9KDDg-">
    <mxGraphModel dx="1285" dy="1215" grid="1" gridSize="10" guides="1" tooltips="1" connect="1" arrows="1" fold="1" page="0" pageScale="1" pageWidth="4681" pageHeight="3300" math="0" shadow="0">
      <root>
        <mxCell id="0" />
        <mxCell id="1" parent="0" />
        <mxCell id="vcTekkizNSYmiupQggr4-2" value="&lt;b&gt;Azure Services&lt;/b&gt;" style="image;aspect=fixed;html=1;points=[];align=left;fontSize=48;image=img/lib/azure2/general/All_Resources.svg;labelPosition=right;verticalLabelPosition=middle;verticalAlign=middle;spacingLeft=15;" vertex="1" parent="1">
          <mxGeometry x="80" y="80" width="64" height="64" as="geometry" />
        </mxCell>
        <mxCell id="vcTekkizNSYmiupQggr4-4" value="Entra ID&lt;div&gt;&lt;span style=&quot;font-weight: normal;&quot;&gt;(previously called &lt;/span&gt;Active Directory&lt;span style=&quot;font-weight: normal;&quot;&gt;)&lt;/span&gt;&lt;/div&gt;&lt;div&gt;&lt;span style=&quot;font-weight: normal;&quot;&gt;Represents an organisational structure/hierarchy&lt;/span&gt;&lt;/div&gt;&lt;div&gt;&lt;span style=&quot;font-weight: 400;&quot;&gt;of accounts and profiles and stuff that reflect what&lt;/span&gt;&lt;/div&gt;&lt;div&gt;&lt;span style=&quot;font-weight: 400;&quot;&gt;Microsoft services and resources an organisation&lt;/span&gt;&lt;/div&gt;&lt;div&gt;&lt;span style=&quot;font-weight: 400;&quot;&gt;has access to. It&#39;s also used to manage the identities&lt;/span&gt;&lt;/div&gt;&lt;div&gt;&lt;span style=&quot;font-weight: 400;&quot;&gt;that use said services and resources.&lt;/span&gt;&lt;/div&gt;" style="image;aspect=fixed;html=1;points=[];align=center;fontSize=12;image=img/lib/azure2/identity/Azure_Active_Directory.svg;fontStyle=1" vertex="1" parent="1">
          <mxGeometry x="144" y="240" width="70" height="64" as="geometry" />
        </mxCell>
        <mxCell id="vcTekkizNSYmiupQggr4-72" value="Networking" style="rounded=0;whiteSpace=wrap;html=1;fontColor=default;fillColor=none;dashed=1;strokeWidth=10;verticalAlign=top;align=left;spacingLeft=15;spacingTop=5;fontStyle=1;fontSize=42;" vertex="1" parent="1">
          <mxGeometry x="20" y="620" width="870" height="500" as="geometry" />
        </mxCell>
        <mxCell id="vcTekkizNSYmiupQggr4-73" value="Virtual Network (VNet)&lt;div&gt;&lt;span style=&quot;font-weight: normal;&quot;&gt;A virtual network inside the Azure cloud&lt;/span&gt;&lt;/div&gt;&lt;div&gt;&lt;span style=&quot;font-weight: normal;&quot;&gt;consisting of VPCs, Subnets, Routing Tables,&lt;/span&gt;&lt;/div&gt;&lt;div&gt;&lt;span style=&quot;font-weight: normal;&quot;&gt;etc.&lt;/span&gt;&lt;/div&gt;" style="image;aspect=fixed;html=1;points=[];align=center;fontSize=12;image=img/lib/azure2/networking/Virtual_Networks.svg;fontStyle=1" vertex="1" parent="1">
          <mxGeometry x="144" y="730" width="67" height="40" as="geometry" />
        </mxCell>
        <mxCell id="vcTekkizNSYmiupQggr4-74" value="Express Route&lt;div&gt;&lt;span style=&quot;font-weight: normal;&quot;&gt;Used to connect to private resources&lt;/span&gt;&lt;/div&gt;&lt;div&gt;&lt;span style=&quot;font-weight: normal;&quot;&gt;inside a private VNet in the Azure cloud&lt;/span&gt;&lt;/div&gt;" style="verticalLabelPosition=bottom;html=1;verticalAlign=top;align=center;strokeColor=none;fillColor=#00BEF2;shape=mxgraph.azure.express_route;pointerEvents=1;fontStyle=1" vertex="1" parent="1">
          <mxGeometry x="390" y="866" width="50" height="30" as="geometry" />
        </mxCell>
        <mxCell id="vcTekkizNSYmiupQggr4-75" value="VPN Gateway&lt;div&gt;&lt;span style=&quot;font-weight: normal;&quot;&gt;Used to connect to private resources&lt;/span&gt;&lt;/div&gt;&lt;div&gt;&lt;span style=&quot;font-weight: normal;&quot;&gt;inside a private VNet in the Azure cloud&lt;/span&gt;&lt;/div&gt;" style="image;sketch=0;aspect=fixed;html=1;points=[];align=center;fontSize=12;image=img/lib/mscae/VPN_Gateway.svg;fontStyle=1" vertex="1" parent="1">
          <mxGeometry x="392.5" y="965" width="45" height="50" as="geometry" />
        </mxCell>
        <mxCell id="vcTekkizNSYmiupQggr4-76" value="Public IP Address&lt;div&gt;&lt;span style=&quot;font-weight: normal;&quot;&gt;Used to connect to public resources&lt;/span&gt;&lt;/div&gt;&lt;div&gt;&lt;span style=&quot;font-weight: normal;&quot;&gt;in the Azure cloud&lt;/span&gt;&lt;/div&gt;" style="image;sketch=0;aspect=fixed;html=1;points=[];align=center;fontSize=12;image=img/lib/mscae/App_Service_IPAddress.svg;fontStyle=1" vertex="1" parent="1">
          <mxGeometry x="152.5" y="860" width="50" height="42" as="geometry" />
        </mxCell>
        <mxCell id="vcTekkizNSYmiupQggr4-77" value="Load Balancer&lt;div&gt;&lt;span style=&quot;font-weight: normal;&quot;&gt;Used to connect to public resources&lt;/span&gt;&lt;/div&gt;&lt;div&gt;&lt;span style=&quot;font-weight: normal;&quot;&gt;in the Azure cloud&amp;nbsp;&lt;/span&gt;&lt;/div&gt;" style="verticalLabelPosition=bottom;html=1;verticalAlign=top;align=center;strokeColor=none;fillColor=#00BEF2;shape=mxgraph.azure.azure_load_balancer;fontStyle=1" vertex="1" parent="1">
          <mxGeometry x="152.5" y="980" width="50" height="35" as="geometry" />
        </mxCell>
        <mxCell id="vcTekkizNSYmiupQggr4-78" value="VNet Peering&lt;div&gt;&lt;span style=&quot;font-weight: normal;&quot;&gt;Allows resources in different&lt;/span&gt;&lt;/div&gt;&lt;div&gt;&lt;span style=&quot;font-weight: normal;&quot;&gt;VNets to communicate&lt;/span&gt;&lt;/div&gt;" style="image;aspect=fixed;html=1;points=[];align=center;fontSize=12;image=img/lib/azure2/other/Peerings.svg;fontStyle=1" vertex="1" parent="1">
          <mxGeometry x="400" y="740" width="68" height="57.92" as="geometry" />
        </mxCell>
        <mxCell id="vcTekkizNSYmiupQggr4-79" value="Subnet&lt;div&gt;&lt;span style=&quot;font-weight: normal;&quot;&gt;Used to logically separate resources&lt;/span&gt;&lt;/div&gt;&lt;div&gt;&lt;span style=&quot;font-weight: normal;&quot;&gt;based on team, department, environment&lt;/span&gt;&lt;/div&gt;" style="image;aspect=fixed;html=1;points=[];align=center;fontSize=12;image=img/lib/azure2/networking/Subnet.svg;fontStyle=1" vertex="1" parent="1">
          <mxGeometry x="640" y="757.2" width="68" height="40.72" as="geometry" />
        </mxCell>
      </root>
    </mxGraphModel>
  </diagram>
</mxfile>
